<svg width="16" height="12" viewBox="0 0 16 12" fill="none" xmlns="http://www.w3.org/2000/svg">
<path fill-rule="evenodd" clip-rule="evenodd" d="M11.35 0.307495C13.9181 0.307495 16 2.38937 16 4.9575C16 7.52562 13.9181 9.6075 11.35 9.6075H5.15C2.58188 9.6075 0.5 7.52562 0.5 4.9575C0.5 2.38937 2.58188 0.307495 5.15 0.307495H11.35ZM8.25 2.6325C6.96594 2.6325 5.925 3.67343 5.925 4.9575C5.925 6.24156 6.96594 7.2825 8.25 7.2825C9.53406 7.2825 10.575 6.24156 10.575 4.9575C10.575 3.67343 9.53406 2.6325 8.25 2.6325ZM8.25 4.1825C8.67802 4.1825 9.025 4.52947 9.025 4.9575C9.025 5.38552 8.67802 5.7325 8.25 5.7325C7.82198 5.7325 7.475 5.38552 7.475 4.9575C7.475 4.52947 7.82198 4.1825 8.25 4.1825ZM12.9 10.3825V11.9325H3.6V10.3825H12.9Z" fill="#CFA1A4"/>
</svg>
