<svg width="15" height="23" viewBox="0 0 15 23" fill="none" xmlns="http://www.w3.org/2000/svg">
<path d="M4.43337 4.26366C5.57784 4.26366 6.50498 3.3357 6.50498 2.19205C6.50498 1.04714 5.57784 0.119965 4.43337 0.119965C3.28851 0.119965 2.36133 1.04714 2.36133 2.19205C2.36133 3.3357 3.28851 4.26366 4.43337 4.26366Z" fill="#CFA1A4"/>
<path d="M6.22889 5.24506H4.41243H2.59602C1.59218 5.24506 0.5 6.33724 0.5 7.3415V14.3051C0.5 14.807 0.906656 15.2141 1.40857 15.2141C1.65564 15.2141 1.40857 15.2141 2.04296 15.2141L2.38843 21.1529C2.38843 21.687 2.82182 22.12 3.35587 22.12C3.58129 22.12 3.99688 22.12 4.41243 22.12C4.82803 22.12 5.24358 22.12 5.46899 22.12C6.00305 22.12 6.43643 21.687 6.43643 21.1529L6.7819 15.2141C7.41629 15.2141 7.16922 15.2141 7.41629 15.2141C7.91821 15.2141 8.32487 14.807 8.32487 14.3051V7.3415C8.32491 6.33724 7.23277 5.24506 6.22889 5.24506Z" fill="#CFA1A4"/>
<path d="M12.1842 9.75902C12.9766 9.75902 13.6183 9.1169 13.6183 8.32524C13.6183 7.53247 12.9766 6.89069 12.1842 6.89069C11.3917 6.89069 10.75 7.53247 10.75 8.32524C10.75 9.1169 11.3917 9.75902 12.1842 9.75902Z" fill="#CFA1A4"/>
<path d="M13.4268 10.4383H12.1693H10.9117C10.2169 10.4383 9.46094 11.1943 9.46094 11.8899V16.7102C9.46094 17.0576 9.74247 17.3395 10.0899 17.3395C10.2611 17.3395 10.0899 17.3395 10.5291 17.3395L10.7681 21.4507C10.7681 21.8202 11.0682 22.12 11.4381 22.12C11.5938 22.12 11.8816 22.12 12.1693 22.12C12.4571 22.12 12.7448 22.12 12.9005 22.12C13.2704 22.12 13.5706 21.8202 13.5706 21.4507L13.8095 17.3395C14.2487 17.3395 14.0775 17.3395 14.2487 17.3395C14.5961 17.3395 14.8777 17.0576 14.8777 16.7102V11.8899C14.8776 11.1943 14.1216 10.4383 13.4268 10.4383Z" fill="#CFA1A4"/>
</svg>
