<svg width="16" height="21" viewBox="0 0 16 21" fill="none" xmlns="http://www.w3.org/2000/svg">
<path d="M7.91504 0.619995C3.82008 0.619995 0.5 3.94008 0.5 8.03503C0.5 9.6475 1.02863 11.1271 1.90731 12.3388C1.92307 12.3679 1.92554 12.4003 1.94346 12.4281L6.88682 19.8432C7.11607 20.187 7.50227 20.3934 7.91504 20.3934C8.32781 20.3934 8.71401 20.187 8.94326 19.8432L13.8866 12.4281C13.9048 12.4003 13.907 12.3679 13.9228 12.3388C14.8014 11.1271 15.3301 9.6475 15.3301 8.03503C15.3301 3.94008 12.01 0.619995 7.91504 0.619995ZM7.91504 10.5067C6.55005 10.5067 5.44336 9.40002 5.44336 8.03503C5.44336 6.67005 6.55005 5.56335 7.91504 5.56335C9.28002 5.56335 10.3867 6.67005 10.3867 8.03503C10.3867 9.40002 9.28002 10.5067 7.91504 10.5067Z" fill="#CFA1A4"/>
</svg>
