<svg width="20" height="22" viewBox="0 0 20 22" fill="none" xmlns="http://www.w3.org/2000/svg">
<path d="M10.0278 21.0433C10.1481 21.0437 10.2753 20.9889 10.3973 20.9143C10.5237 20.837 10.664 20.7262 10.8146 20.5892C11.1162 20.315 11.473 19.9231 11.8618 19.4479C12.6401 18.4964 13.5578 17.1972 14.4353 15.8011C15.3128 14.4049 16.1523 12.9082 16.7731 11.5614C17.3904 10.2221 17.8028 9.00748 17.8028 8.18503C17.8028 3.8913 14.3215 0.410059 10.0278 0.410059C5.73407 0.410059 2.25283 3.8913 2.25283 8.18503C2.25283 9.018 2.66373 10.2378 3.27965 11.5794C3.89891 12.9284 4.73666 14.4238 5.61297 15.8173C6.48922 17.2108 7.4064 18.5061 8.18573 19.4542C8.57503 19.9278 8.93272 20.3183 9.23578 20.5915C9.38713 20.7279 9.5283 20.8382 9.65573 20.9152C9.77897 20.9896 9.90691 21.0437 10.0278 21.0433ZM10.0278 21.0433C10.0275 21.0433 10.0272 21.0433 10.027 21.0433L10.0278 20.8933L10.0286 21.0433C10.0284 21.0433 10.0281 21.0433 10.0278 21.0433ZM10.0286 18.8371L10.027 18.8371C10.0039 18.8372 9.95101 18.824 9.86134 18.7684C9.77574 18.7153 9.67252 18.6337 9.55324 18.5234C9.31506 18.3031 9.02673 17.9813 8.70621 17.5814C8.06591 16.7827 7.30822 15.6868 6.58226 14.5059C5.85635 13.3251 5.16446 12.0631 4.65463 10.9328C4.14146 9.79503 3.82366 8.81377 3.82366 8.18503C3.82366 4.7591 6.60126 1.98089 10.0278 1.98089C13.4543 1.98089 16.2319 4.7591 16.2319 8.18503C16.2319 8.8046 15.9133 9.78117 15.3987 10.9175C14.8876 12.0463 14.1941 13.3095 13.4671 14.4926C12.7401 15.6758 11.9818 16.7751 11.3422 17.5767C11.022 17.978 10.7343 18.3011 10.4972 18.5224C10.3784 18.6332 10.2757 18.7152 10.1908 18.7684C10.1016 18.8244 10.05 18.8372 10.0286 18.8371ZM10.0278 9.94127C9.05776 9.94127 8.27156 9.15507 8.27156 8.18503C8.27156 7.21499 9.05776 6.42879 10.0278 6.42879C10.9978 6.42879 11.784 7.21499 11.784 8.18503C11.784 9.15507 10.9978 9.94127 10.0278 9.94127ZM10.0278 4.85796C8.1906 4.85796 6.70073 6.34715 6.70073 8.18503C6.70073 10.0229 8.1906 11.5121 10.0278 11.5121C11.865 11.5121 13.3549 10.0229 13.3549 8.18503C13.3549 6.34715 11.865 4.85796 10.0278 4.85796Z" fill="#67595E" stroke="#67595E" stroke-width="0.3"/>
</svg>
