<svg width="21" height="20" viewBox="0 0 21 20" fill="none" xmlns="http://www.w3.org/2000/svg">
<g clip-path="url(#clip0_9_967)">
<path fill-rule="evenodd" clip-rule="evenodd" d="M10.6945 18.8934C9.67483 18.8934 9.11066 18.784 8.1945 18.4767L6.43986 19.3541C5.33168 19.9081 4.02783 19.1023 4.02783 17.8633V15.9767C2.23329 14.3034 1.52783 12.374 1.52783 9.72673C1.52783 4.66412 5.63189 0.560059 10.6945 0.560059C15.7571 0.560059 19.8612 4.66412 19.8612 9.72673C19.8612 14.7893 15.7571 18.8934 10.6945 18.8934ZM5.6945 15.252L5.16446 14.7577C3.77022 13.4577 3.1945 12.0043 3.1945 9.72673C3.1945 5.58459 6.55236 2.22673 10.6945 2.22673C14.8367 2.22673 18.1945 5.58459 18.1945 9.72673C18.1945 13.8689 14.8367 17.2267 10.6945 17.2267C9.87308 17.2267 9.48783 17.1526 8.72446 16.8966L8.06822 16.6765L5.6945 17.8633V15.252Z" fill="#FFFFFF"/>
<path d="M5.62295 6.88883C5.71976 6.17443 6.71482 5.20349 7.50453 5.31122L7.50326 5.31005C8.27179 5.44631 8.88017 6.68052 9.22322 7.23548C9.46629 7.63814 9.30845 8.04611 9.08173 8.21826C8.77588 8.44826 8.29762 8.76562 8.39796 9.08428C8.57636 9.65075 10.6944 11.627 11.7362 12.1888C12.1305 12.4015 12.4164 11.8406 12.6606 11.5533C12.838 11.3322 13.2756 11.2001 13.7061 11.4183C14.3492 11.7677 14.9549 12.1738 15.5151 12.631C15.7949 12.8491 15.8605 13.1716 15.6667 13.5124C15.3252 14.1126 14.3377 14.9041 13.6209 14.7433C12.3689 14.4624 7.30553 12.631 5.67914 7.3251C5.58768 7.07409 5.6107 6.9792 5.62295 6.88883Z" fill="#FFFFFF"/>
</g>
<defs>
<clipPath id="clip0_9_967">
<rect width="20.3333" height="18.9721" fill="white" transform="translate(0.527832 0.560059)"/>
</clipPath>
</defs>
</svg>
