<svg width="16" height="16" viewBox="0 0 16 16" fill="none" xmlns="http://www.w3.org/2000/svg">
<circle cx="7.5" cy="7.5" r="7.5" fill="#EED6D3"/>
<path d="M8.9985 2.02671C8.45969 2.1308 8.08921 2.35095 7.74053 2.68715C6.83124 3.59446 6.91616 5.18799 6.91616 6.48401V9.20499C6.91616 9.30908 6.91616 9.42514 6.94772 9.52922L6.96876 9.5937C7.00032 9.68397 7.0642 9.77516 7.14836 9.77516V9.80095H6.34503V9.78806C6.47203 9.77516 6.57799 9.52922 6.57799 9.32197V8.15584C6.15491 8.15584 5.90166 8.00017 5.65819 7.8445C5.40419 7.68883 5.14042 7.53316 4.67525 7.53316C4.5693 7.53316 4.49565 7.54606 4.43178 7.55895C4.43178 8.02504 4.4423 8.49204 4.4423 8.95813C4.4423 9.17828 4.4423 9.38553 4.43178 9.57989C4.37917 10.4614 4.19957 11.1218 3.87118 11.6533C3.71261 11.8993 3.53301 12.1194 3.31057 12.3267C2.95137 12.6638 2.50725 12.9226 2.01052 13L2 12.9742C2.53881 12.8701 2.90929 12.6629 3.25797 12.3138C4.16726 11.4065 4.08234 9.81293 4.08234 8.52981V5.79593C4.08234 5.69184 4.08234 5.57578 4.05078 5.48459L4.02974 5.40722C3.99817 5.31695 3.9343 5.22576 3.85013 5.22576V5.19997H4.65346V5.22576C4.52646 5.22576 4.42126 5.48459 4.42126 5.67895V5.92489C4.42126 6.43058 4.42126 6.94825 4.43178 7.45394C4.4949 7.44105 4.57982 7.42815 4.67525 7.42815C5.16146 7.42815 5.4365 7.59672 5.71154 7.76528C5.95502 7.92095 6.1767 8.06372 6.57874 8.06372C6.56822 7.39039 6.56822 6.71613 6.5577 6.04279C6.5577 5.82264 6.5577 5.61539 6.56822 5.42103C6.62083 4.53952 6.80118 3.87908 7.12882 3.3476C7.28739 3.10166 7.46699 2.88151 7.68943 2.68715C8.04863 2.33713 8.49275 2.09119 8.98948 2L9 2.02579L8.9985 2.02671Z" fill="#7E7268" stroke="#7E7268" stroke-width="0.4" stroke-miterlimit="10"/>
<path d="M9.19855 10.9745C9.31509 10.9745 9.3961 10.8228 9.41924 10.7132C9.44239 10.6025 9.45396 10.4792 9.45396 10.3686V5.32795C9.45396 5.21733 9.45396 5.10768 9.41924 4.99706C9.38453 4.88644 9.31427 4.72198 9.19855 4.72198V4.69457H10.0822V4.72198C9.95404 4.72198 9.82675 4.94224 9.82675 5.31424L9.83832 8.70142H10.3153C10.8848 8.70142 11.4551 8.54968 11.9197 8.10915C12.4429 7.6138 12.6173 6.70436 12.6173 5.98874C12.6173 4.37739 11.7568 3 10.431 3.02839C9.73334 3.04209 9.11671 3.33089 8.67532 3.86833C8.25707 4.37739 8.03554 5.06657 8.03554 5.79589C8.03554 6.52521 8.26782 7.20069 8.71004 7.72345C8.83816 7.87518 8.97785 8.01224 9.12829 8.12286V8.16397C8.96545 8.05335 8.81418 7.9163 8.68606 7.75086C8.26781 7.19971 8 6.5115 8 5.79491C8 5.07832 8.23227 4.3627 8.65135 3.85365C9.10514 3.28879 9.73252 3 10.4417 3C12.128 3 13 4.45962 13 6.02986C13 6.60842 12.8603 7.20068 12.6165 7.57171C12.1627 8.25991 11.5006 8.68674 10.779 8.74254C10.6161 8.75624 10.4533 8.76995 10.2905 8.76995H9.8251V10.4909C9.8251 10.7112 9.94164 10.9726 10.0805 10.9726V11H9.19689V10.9726L9.19855 10.9745Z" fill="#7E7268" stroke="#7E7268" stroke-width="0.4" stroke-miterlimit="10"/>
</svg>
