<svg width="304" height="37" viewBox="0 0 304 37" fill="none" xmlns="http://www.w3.org/2000/svg">
<g clip-path="url(#clip0_25_117)">
<path d="M4.95211 27.6959C5.37797 27.6959 5.67396 27.2308 5.75853 26.8947C5.8431 26.5556 5.88538 26.1775 5.88538 25.8384V10.3876C5.88538 10.0485 5.88538 9.71242 5.75853 9.37333C5.63167 9.03425 5.37495 8.53012 4.95211 8.53012V8.4461H8.18081V8.53012C7.71266 8.53012 7.24754 9.20529 7.24754 10.3456L7.28982 20.7282H9.03254C11.1135 20.7282 13.1975 20.2631 14.8949 18.9127C16.8068 17.3943 17.4441 14.6066 17.4441 12.4131C17.4441 7.47386 14.2999 3.2518 9.45538 3.33882C6.90624 3.38083 4.6531 4.26605 3.04025 5.91347C1.51198 7.47686 0.702536 9.58638 0.702536 11.8249C0.702536 14.0635 1.55124 16.131 3.16711 17.7334C3.63525 18.1985 4.14568 18.6186 4.69538 18.9577V19.0838C4.10038 18.7447 3.54766 18.3246 3.07952 17.8174C1.55426 16.131 0.575684 14.0185 0.575684 11.8249C0.575684 9.6314 1.42439 7.43485 2.95568 5.87446C4.61383 4.14302 6.90624 3.2578 9.49766 3.2578C15.6591 3.2578 18.8455 7.73192 18.8455 12.5451C18.8455 14.3186 18.3351 16.134 17.4441 17.2713C15.7859 19.3808 13.3667 20.6892 10.7299 20.8602C10.1349 20.9022 9.53995 20.9442 8.94495 20.9442H7.24452V26.2195C7.24452 26.8947 7.67038 27.6959 8.17779 27.6959V27.7799H4.94909V27.6959H4.95211Z" fill="#7E7268" stroke="#7E7268" stroke-width="0.5" stroke-miterlimit="10"/>
<path d="M21.5637 24.8272C21.2677 24.7012 20.9687 24.5751 20.715 24.3621C20.6727 24.3621 20.419 24.236 20.419 24.194L20.3768 23.942L20.123 22.2105H20.2922L20.419 22.5046C20.8026 23.4318 21.4822 24.236 22.4155 24.6982C22.8836 24.9082 23.2642 25.0342 23.7746 25.1213C24.5387 25.2053 25.3452 25.2893 26.07 25.2053C27.1332 25.1213 28.3232 24.8662 29.1296 24.233C30.0206 23.5579 30.6579 22.6276 30.6579 21.5324C30.6579 17.5234 20.5882 18.0695 20.5882 13.7664C20.5882 12.4581 21.4369 11.6569 22.5846 11.1918C24.6233 10.3066 27.1302 10.4326 29.1689 11.3178C29.4648 11.4438 29.7639 11.6119 30.0176 11.7829C30.0599 11.8249 30.3136 11.951 30.3136 11.993L30.3558 12.245L30.6971 13.9765H30.528C30.3166 13.5114 29.8907 12.8782 29.637 12.5421C28.7883 11.4859 27.0033 10.8947 25.472 10.8947C23.8561 10.8947 21.307 11.4859 21.307 13.3853C21.307 16.3831 31.3344 15.918 31.3344 21.1513C31.3344 21.5324 31.2498 22.1235 31.123 22.4596C30.7817 23.4318 30.0176 24.149 29.1266 24.6531C27.9789 25.3283 26.6197 25.5384 25.2606 25.5384C24.0283 25.5384 22.7114 25.3283 21.5637 24.8212V24.8272Z" fill="#7E7268" stroke="#7E7268" stroke-width="0.5" stroke-miterlimit="10"/>
<path d="M32.6118 25.4604C33.0377 25.4604 33.2914 24.9952 33.4182 24.6171C33.5028 24.3231 33.5451 23.942 33.5451 23.6029V12.5421C33.5451 12.203 33.5028 11.8249 33.4182 11.5279C33.2914 11.1468 33.0347 10.6847 32.6118 10.6847V10.6006H35.8405V10.6847C35.3301 10.6847 34.9072 11.4859 34.9072 12.161V23.981C34.9072 24.6561 35.3331 25.4573 35.8405 25.4573V25.5414H32.6118V25.4573V25.4604Z" fill="#7E7268" stroke="#7E7268" stroke-width="0.5" stroke-miterlimit="10"/>
<path d="M42.0021 25.0372C40.5584 24.5301 39.3684 23.5609 38.4744 22.3366C37.6257 21.1123 37.1152 19.5939 37.1152 18.0725C37.1152 13.9345 40.3439 10.6006 44.9741 10.6006C48.3296 10.6006 49.9878 11.951 49.9878 11.951L50.4136 13.9765H50.2445C49.9485 13.3853 49.4381 12.5421 48.9276 12.119C47.6108 11.1048 45.7835 10.8107 44.2129 10.9787C42.8538 11.1048 41.6215 11.6959 40.643 12.6261C39.7097 13.5534 39.0694 14.7357 38.7311 16.044C38.3052 17.6074 38.3898 19.2938 38.9848 20.8152C39.7912 23.0087 41.6608 24.8242 44.0408 25.1633C45.0194 25.2893 46.3362 25.2473 47.2695 24.9952C47.9491 24.7852 48.5441 24.4461 49.0545 23.981C49.3082 23.7709 49.5226 23.4739 49.6918 23.2218C50.0754 22.6727 50.2445 22.2075 50.2445 22.2075H50.4559L50.0301 24.149C49.3505 24.6982 48.5018 24.9922 47.6923 25.2053C45.8651 25.6704 43.7418 25.7124 41.9991 25.0372H42.0021Z" fill="#7E7268" stroke="#7E7268" stroke-width="0.5" stroke-miterlimit="10"/>
<path d="M51.7305 18.0725C51.7305 13.9345 55.086 10.6006 59.251 10.6006C63.416 10.6006 66.7716 13.9345 66.7716 18.0725C66.7716 22.2105 63.416 25.5444 59.251 25.5444C55.086 25.5444 51.7305 22.2105 51.7305 18.0725ZM65.3671 18.0725C65.3671 14.1055 62.6066 10.8977 59.248 10.8977C55.8894 10.8977 53.1289 14.1055 53.1289 18.0725C53.1289 22.0395 55.8894 25.2473 59.248 25.2473C62.6066 25.2473 65.3671 22.0395 65.3671 18.0725ZM59.4625 9.04025C59.7584 8.36508 59.8037 8.28106 60.3957 6.88871H61.8394C59.6739 9.04025 59.544 9.12727 59.544 9.12727L59.4594 9.04325L59.4625 9.04025Z" fill="#7E7268" stroke="#7E7268" stroke-width="0.5" stroke-miterlimit="10"/>
<path d="M67.1943 25.4604C67.448 25.4604 67.6625 25.2923 67.8316 25.0372C68.2152 24.3621 68.1276 23.4769 68.1276 22.7147V12.5421C68.1276 12.203 68.0853 11.8249 68.0008 11.5279C67.8739 11.1468 67.6172 10.6847 67.1943 10.6847V10.6006H70.423V10.6847C69.9126 10.6847 69.4898 11.4859 69.4898 12.161V25.2473H71.3171C74.4189 25.2473 76.968 25.4153 77.8167 24.023H77.9859L77.6899 25.5414H67.1943V25.4573V25.4604Z" fill="#7E7268" stroke="#7E7268" stroke-width="0.5" stroke-miterlimit="10"/>
<path d="M78.8374 18.0725C78.8374 13.9345 82.193 10.6006 86.358 10.6006C90.523 10.6006 93.8785 13.9345 93.8785 18.0725C93.8785 22.2105 90.523 25.5444 86.358 25.5444C82.193 25.5444 78.8374 22.2105 78.8374 18.0725ZM92.4741 18.0725C92.4741 14.1055 89.7135 10.8977 86.3549 10.8977C82.9964 10.8977 80.2358 14.1055 80.2358 18.0725C80.2358 22.0395 82.9964 25.2473 86.3549 25.2473C89.7135 25.2473 92.4741 22.0395 92.4741 18.0725Z" fill="#7E7268" stroke="#7E7268" stroke-width="0.5" stroke-miterlimit="10"/>
<path d="M109.853 18.7897V19.0838H109.768C109.047 19.1258 108.92 19.6749 108.92 20.3921V23.8549L108.156 24.4041C107.561 24.7852 106.797 25.0372 106.159 25.2053C104.332 25.6704 102.209 25.7124 100.424 25.0372C99.0223 24.5301 97.79 23.5609 96.896 22.3366C96.0473 21.1123 95.5791 19.5939 95.5791 18.0725C95.5791 13.9345 98.7655 10.6006 103.396 10.6006C106.751 10.6006 108.409 11.951 108.409 11.951L108.835 13.9765H108.666C108.37 13.3853 107.86 12.5421 107.349 12.119C106.032 11.1048 104.247 10.8107 102.635 10.9787C101.275 11.1048 100.043 11.6959 99.1068 12.6261C98.1282 13.5534 97.491 14.7357 97.1527 16.044C96.7691 17.6074 96.8144 19.2938 97.4064 20.8152C98.2551 23.0087 100.082 24.8242 102.505 25.1633C103.438 25.2893 104.758 25.2473 105.691 24.9952C106.371 24.7852 106.966 24.4461 107.476 23.981L107.561 23.897V20.2661C107.561 19.6329 107.05 19.1258 106.413 19.1258H104.67V18.7897H109.853Z" fill="#7E7268" stroke="#7E7268" stroke-width="0.5" stroke-miterlimit="10"/>
<path d="M123.873 25.4603V25.5444H121.113V25.4603C121.496 25.4603 121.75 25.0793 121.496 24.236C121.327 23.6449 121.07 22.8857 120.732 22.0425C119.373 21.9585 118.524 21.5354 117.673 21.1153C116.739 20.6501 115.803 20.188 114.103 20.188C113.634 20.188 113.254 20.2721 112.997 20.3141C112.444 21.7904 111.976 23.1408 111.68 24.071C111.596 24.3651 111.553 24.6201 111.553 24.8302C111.553 25.2113 111.68 25.4634 111.937 25.4634V25.5474H110.279V25.4634C110.662 25.4634 111.043 24.9142 111.342 24.071C111.683 23.0567 112.106 21.7484 112.617 20.3981L112.701 20.104C114.359 15.7559 116.44 10.6066 116.44 10.6066H117.842C117.842 10.6066 121.623 20.2721 122.813 24.029C123.024 24.7042 123.493 25.4634 123.876 25.4634L123.873 25.4603ZM120.644 21.7454C119.116 17.5234 116.609 11.1498 116.609 11.1498C116.609 11.1498 114.655 15.963 113.124 20.014C113.378 19.93 113.719 19.888 114.103 19.888C115.888 19.888 116.905 20.3951 117.884 20.8602C118.69 21.2833 119.454 21.6614 120.644 21.7454Z" fill="#7E7268" stroke="#7E7268" stroke-width="0.5" stroke-miterlimit="10"/>
<path d="M154.55 0.218041C152.385 0.557126 150.896 1.27431 149.494 2.36958C145.84 5.32532 146.181 10.5166 146.181 14.7387V23.6029C146.181 23.942 146.181 24.3201 146.308 24.6592L146.393 24.8692C146.519 25.1633 146.776 25.4604 147.114 25.4604V25.5444H143.886V25.5024C144.396 25.4604 144.822 24.6592 144.822 23.984V20.185C143.122 20.185 142.104 19.6779 141.125 19.1708C140.104 18.6637 139.044 18.1565 137.175 18.1565C136.749 18.1565 136.453 18.1985 136.196 18.2405C136.196 19.7589 136.238 21.2803 136.238 22.7987C136.238 23.5159 136.238 24.191 136.196 24.8242C135.985 27.6959 135.263 29.8475 133.943 31.5789C133.306 32.3801 132.584 33.0973 131.69 33.7724C130.246 34.8707 128.461 35.7139 126.465 35.966L126.422 35.882C128.588 35.5429 130.077 34.8677 131.478 33.7304C135.133 30.7747 134.792 25.5834 134.792 21.4033V12.4971C134.792 12.158 134.792 11.7799 134.665 11.4829L134.58 11.2308C134.453 10.9367 134.197 10.6396 133.858 10.6396V10.5556H137.087V10.6396C136.577 10.6396 136.154 11.4829 136.154 12.116V12.9172C136.154 14.5646 136.154 16.251 136.196 17.8985C136.45 17.8565 136.791 17.8144 137.175 17.8144C139.129 17.8144 140.234 18.3636 141.34 18.9127C142.318 19.4198 143.209 19.885 144.825 19.885C144.783 17.6914 144.783 15.4949 144.741 13.3013C144.741 12.5841 144.741 11.909 144.783 11.2758C144.994 8.40409 145.719 6.25255 147.036 4.52112C147.673 3.71992 148.395 3.00274 149.289 2.36958C150.733 1.22929 152.518 0.428094 154.514 0.13102L154.557 0.215041L154.55 0.218041Z" fill="#7E7268" stroke="#7E7268" stroke-width="0.5" stroke-miterlimit="10"/>
<path d="M148.601 25.4604C149.111 25.4604 149.534 24.7852 149.534 23.6029V12.5421C149.534 11.4018 149.108 10.6847 148.601 10.6847V10.6006H158.67L159.009 12.164H158.797C158.118 10.7297 155.442 10.8977 152.509 10.8977H150.893V17.9885H155.016C156.121 17.9885 156.843 17.4814 156.843 17.1033H157.012V19.2548H156.843V19.2128C156.843 18.7897 156.121 18.2826 155.016 18.2826H150.893V25.2473H152.72C155.822 25.2473 158.371 25.4153 159.22 24.023H159.389L159.093 25.5414H148.598V25.4573L148.601 25.4604Z" fill="#7E7268" stroke="#7E7268" stroke-width="0.5" stroke-miterlimit="10"/>
<path d="M160.667 25.4604C160.92 25.4604 161.135 25.2923 161.304 25.0372C161.687 24.3621 161.6 23.4769 161.6 22.7147V12.5421C161.6 12.203 161.558 11.8249 161.473 11.5279C161.346 11.1468 161.089 10.6847 160.667 10.6847V10.6006H163.895V10.6847C163.385 10.6847 162.959 11.4859 162.959 12.161V25.2473H164.786C167.888 25.2473 170.437 25.4153 171.286 24.023H171.455L171.159 25.5414H160.664V25.4573L160.667 25.4604Z" fill="#7E7268" stroke="#7E7268" stroke-width="0.5" stroke-miterlimit="10"/>
<path d="M172.733 25.4604C172.987 25.4604 173.201 25.2923 173.37 25.0372C173.754 24.3621 173.666 23.4769 173.666 22.7147V12.5421C173.666 12.203 173.624 11.8249 173.539 11.5279C173.413 11.1468 173.156 10.6847 172.733 10.6847V10.6006H175.962V10.6847C175.451 10.6847 175.025 11.4859 175.025 12.161V25.2473H176.853C179.955 25.2473 182.504 25.4153 183.352 24.023H183.522L183.226 25.5414H172.73V25.4573L172.733 25.4604Z" fill="#7E7268" stroke="#7E7268" stroke-width="0.5" stroke-miterlimit="10"/>
<path d="M184.799 25.4604C185.309 25.4604 185.732 24.7852 185.732 23.6029V12.5421C185.732 11.4018 185.306 10.6847 184.799 10.6847V10.6006H194.869L195.207 12.164H194.995C194.316 10.7297 191.64 10.8977 188.707 10.8977H187.091V17.9885H191.214C192.319 17.9885 193.041 17.4814 193.041 17.1033H193.21V19.2548H193.041V19.2128C193.041 18.7897 192.319 18.2826 191.214 18.2826H187.091V25.2473H188.919C192.02 25.2473 194.57 25.4153 195.418 24.023H195.587L195.291 25.5414H184.796V25.4573L184.799 25.4604Z" fill="#7E7268" stroke="#7E7268" stroke-width="0.5" stroke-miterlimit="10"/>
<path d="M208.678 10.6006V10.6847C208.125 10.6847 207.956 11.3598 207.956 12.161V25.5414H207.618L197.759 12.8362L197.802 23.981C197.802 24.8242 197.928 25.4573 198.481 25.4573V25.5414H196.696V25.4573H196.738C197.291 25.4573 197.46 24.7402 197.46 24.023L197.418 12.4161L196.017 10.6006H197.802L207.618 23.3058V12.119C207.618 11.4018 207.491 10.6847 206.938 10.6847H206.896V10.6006H208.681H208.678Z" fill="#7E7268" stroke="#7E7268" stroke-width="0.5" stroke-miterlimit="10"/>
<path d="M219.001 27.6959C219.427 27.6959 219.723 27.2308 219.807 26.8947C219.892 26.5556 219.934 26.1775 219.934 25.8384V10.3876C219.934 10.0485 219.934 9.71242 219.807 9.37333C219.681 9.03425 219.424 8.53012 219.001 8.53012V8.4461H222.23V8.53012C221.762 8.53012 221.296 9.20529 221.296 10.3456L221.339 20.7282H223.081C225.162 20.7282 227.246 20.2631 228.944 18.9127C230.856 17.3943 231.493 14.6066 231.493 12.4131C231.493 7.47386 228.349 3.2518 223.504 3.33882C220.955 3.38083 218.702 4.26605 217.089 5.91347C215.561 7.47386 214.751 9.58638 214.751 11.8219C214.751 14.0575 215.6 16.128 217.216 17.7304C217.684 18.1955 218.195 18.6156 218.744 18.9547V19.0808C218.149 18.7417 217.597 18.3216 217.128 17.8144C215.6 16.125 214.622 14.0155 214.622 11.8189C214.622 9.62239 215.47 7.42884 217.002 5.86845C218.66 4.13702 220.952 3.2518 223.544 3.2518C229.705 3.2518 232.891 7.72592 232.891 12.5391C232.891 14.3126 232.381 16.128 231.49 17.2653C229.832 19.3748 227.413 20.6832 224.776 20.8542C224.181 20.8962 223.586 20.9382 222.991 20.9382H221.29V26.2135C221.29 26.8887 221.716 27.6899 222.224 27.6899V27.7739H218.995V27.6899L219.001 27.6959Z" fill="#7E7268" stroke="#7E7268" stroke-width="0.5" stroke-miterlimit="10"/>
<path d="M234.169 25.4604C234.679 25.4604 235.102 24.7852 235.102 23.6029V12.5421C235.102 11.4018 234.676 10.6847 234.169 10.6847V10.6006H244.239L244.577 12.164H244.366C243.686 10.7297 241.01 10.8977 238.077 10.8977H236.461V17.9885H240.584C241.69 17.9885 242.411 17.4814 242.411 17.1033H242.581V19.2548H242.411V19.2128C242.411 18.7897 241.69 18.2826 240.584 18.2826H236.461V25.2473H238.289C241.391 25.2473 243.94 25.4153 244.788 24.023H244.958L244.662 25.5414H234.166V25.4573L234.169 25.4604Z" fill="#7E7268" stroke="#7E7268" stroke-width="0.5" stroke-miterlimit="10"/>
<path d="M258.896 25.2893V25.3733C258.471 25.4994 258.386 25.4574 258.048 25.4994C256.858 25.5834 255.882 25.2473 254.904 24.191L252.397 21.5324C251.717 20.8152 251.122 20.3921 250.443 20.3081C249.763 20.3501 249.083 20.3501 248.531 20.3501V23.981C248.531 24.4041 248.7 24.9532 248.999 25.2053C249.126 25.3313 249.253 25.4153 249.382 25.4574H249.467V25.5414H246.238V25.4574C246.492 25.4574 246.706 25.2893 246.876 25.0342C247.045 24.6982 247.172 24.233 247.172 23.5999V12.5391C247.172 12.2 247.172 11.8219 247.045 11.5249C246.918 11.1438 246.661 10.6817 246.238 10.6817V10.5976H249.467C253.46 10.5976 257.03 11.6119 257.03 15.2398C257.03 18.4056 254.907 19.7559 253.037 20.137L252.569 20.179C252.484 20.179 252.4 20.221 252.315 20.221C252.868 20.4311 253.421 20.7702 253.973 21.3613L256.438 24.02C257.244 24.8632 257.628 25.4123 258.477 25.3703C258.688 25.3283 258.776 25.3283 258.902 25.2863L258.896 25.2893ZM250.612 20.056C251.164 20.014 251.759 19.972 252.27 19.8459L252.823 19.7199C254.988 19.0868 255.668 17.5684 255.668 15.2878C255.668 12.7972 254.182 11.5309 252.397 11.1498C251.759 10.9817 250.739 10.8977 249.932 10.8977H248.531V20.059C248.531 20.059 249.467 20.101 250.612 20.059V20.056Z" fill="#7E7268" stroke="#7E7268" stroke-width="0.5" stroke-miterlimit="10"/>
<path d="M259.748 25.4604C260.258 25.4604 260.681 24.7852 260.681 23.6029V12.5421C260.681 11.4018 260.255 10.6847 259.748 10.6847V10.6006H269.817L270.156 12.164H269.944C269.265 10.7297 266.589 10.8977 263.656 10.8977H262.04V17.9885H266.163C267.268 17.9885 267.99 17.4814 267.99 17.1033H268.159V19.2548H267.99V19.2128C267.99 18.7897 267.268 18.2826 266.163 18.2826H262.04V25.2473H263.867C266.969 25.2473 269.518 25.4153 270.367 24.023H270.536L270.24 25.5414H259.745V25.4573L259.748 25.4604Z" fill="#7E7268" stroke="#7E7268" stroke-width="0.5" stroke-miterlimit="10"/>
<path d="M271.814 25.4604C272.24 25.4604 272.494 24.9952 272.62 24.6171C272.705 24.3231 272.747 23.942 272.747 23.6029V12.5421C272.747 12.203 272.705 11.8249 272.62 11.5279C272.494 11.1468 272.237 10.6847 271.814 10.6847V10.6006H275.043V10.6847C274.532 10.6847 274.106 11.4859 274.106 12.161V23.981C274.106 24.6561 274.532 25.4573 275.043 25.4573V25.5414H271.814V25.4573V25.4604Z" fill="#7E7268" stroke="#7E7268" stroke-width="0.5" stroke-miterlimit="10"/>
<path d="M289.401 25.2893V25.3733C288.975 25.4994 288.891 25.4574 288.553 25.4994C287.363 25.5834 286.387 25.2473 285.408 24.191L282.902 21.5324C282.222 20.8152 281.627 20.3921 280.947 20.3081C280.268 20.3501 279.588 20.3501 279.036 20.3501V23.981C279.036 24.4041 279.205 24.9532 279.504 25.2053C279.631 25.3313 279.757 25.4153 279.887 25.4574H279.972V25.5414H276.743V25.4574C276.997 25.4574 277.211 25.2893 277.38 25.0342C277.55 24.6982 277.676 24.233 277.676 23.5999V12.5391C277.676 12.2 277.676 11.8219 277.55 11.5249C277.423 11.1438 277.166 10.6817 276.743 10.6817V10.5976H279.972C283.965 10.5976 287.535 11.6119 287.535 15.2398C287.535 18.4056 285.411 19.7559 283.542 20.137L283.074 20.179C282.989 20.179 282.905 20.221 282.82 20.221C283.373 20.4311 283.925 20.7702 284.478 21.3613L286.943 24.02C287.749 24.8632 288.133 25.4123 288.981 25.3703C289.193 25.3283 289.28 25.3283 289.407 25.2863L289.401 25.2893ZM281.117 20.056C281.669 20.014 282.264 19.972 282.775 19.8459L283.327 19.7199C285.493 19.0868 286.173 17.5684 286.173 15.2878C286.173 12.7972 284.687 11.5309 282.902 11.1498C282.264 10.9817 281.243 10.8977 280.437 10.8977H279.036V20.059C279.036 20.059 279.969 20.101 281.117 20.059V20.056Z" fill="#7E7268" stroke="#7E7268" stroke-width="0.5" stroke-miterlimit="10"/>
<path d="M303.424 25.4603V25.5444H300.664V25.4603C301.047 25.4603 301.301 25.0793 301.047 24.236C300.878 23.6449 300.622 22.8857 300.283 22.0425C298.924 21.9585 298.076 21.5354 297.224 21.1153C296.291 20.6501 295.354 20.188 293.654 20.188C293.186 20.188 292.805 20.2721 292.548 20.3141C291.996 21.7904 291.527 23.1408 291.232 24.071C291.147 24.3651 291.105 24.6201 291.105 24.8302C291.105 25.2113 291.231 25.4634 291.488 25.4634V25.5474H289.83V25.4634C290.214 25.4634 290.594 24.9142 290.893 24.071C291.231 23.0567 291.657 21.7484 292.168 20.3981L292.252 20.104C293.91 15.7559 295.991 10.6066 295.991 10.6066H297.393C297.393 10.6066 301.174 20.2721 302.364 24.029C302.576 24.7042 303.044 25.4634 303.427 25.4634L303.424 25.4603ZM300.196 21.7454C298.667 17.5234 296.161 11.1498 296.161 11.1498C296.161 11.1498 294.206 15.963 292.678 20.014C292.932 19.93 293.273 19.888 293.657 19.888C295.442 19.888 296.46 20.3951 297.438 20.8602C298.245 21.2833 299.012 21.6614 300.199 21.7454H300.196Z" fill="#7E7268" stroke="#7E7268" stroke-width="0.5" stroke-miterlimit="10"/>
</g>
<defs>
<clipPath id="clip0_25_117">
<rect width="303" height="36" fill="white" transform="translate(0.5 0.0499992)"/>
</clipPath>
</defs>
</svg>
