<svg width="310" height="38" viewBox="0 0 310 38" fill="none" xmlns="http://www.w3.org/2000/svg">
<g clip-path="url(#clip0_30_2)">
<path d="M4.98006 28.498C5.41453 28.498 5.7165 28.0182 5.80278 27.6715C5.88906 27.3218 5.9322 26.9318 5.9322 26.582V10.6449C5.9322 10.2951 5.9322 9.94844 5.80278 9.59869C5.67336 9.24893 5.41145 8.72894 4.98006 8.72894V8.64227H8.27402V8.72894C7.79641 8.72894 7.32188 9.42535 7.32188 10.6015L7.36502 21.3109H9.14295C11.266 21.3109 13.3921 20.8312 15.1238 19.4383C17.0743 17.8722 17.7245 14.9967 17.7245 12.7341C17.7245 7.63943 14.5168 3.28448 9.57434 3.37424C6.97369 3.41758 4.67501 4.33066 3.02957 6.02992C1.47041 7.64252 0.644614 9.82154 0.644614 12.1275C0.644614 14.4334 1.51047 16.5691 3.15899 18.2219C3.6366 18.7017 4.15734 19.135 4.71815 19.4847V19.6147C4.11112 19.265 3.54724 18.8317 3.06963 18.3086C1.51355 16.5691 0.515198 14.3931 0.515198 12.1275C0.515198 9.86178 1.38105 7.59919 2.94329 5.98969C4.63495 4.20376 6.97369 3.29067 9.61748 3.29067C15.9034 3.29067 19.1542 7.90561 19.1542 12.8703C19.1542 14.6996 18.6335 16.5722 17.7245 17.7452C16.0328 19.9212 13.5647 21.2707 10.8747 21.4471C10.2676 21.4904 9.66062 21.5338 9.0536 21.5338H7.3188V26.9751C7.3188 27.6715 7.75327 28.498 8.27093 28.498V28.5846H4.97698V28.498H4.98006Z" fill="#67595E" stroke="#67595E" stroke-width="0.1" stroke-miterlimit="10"/>
<path d="M21.9276 25.539C21.6257 25.409 21.3206 25.279 21.0618 25.0592C21.0186 25.0592 20.7598 24.9292 20.7598 24.8859L20.7167 24.6259L20.4578 22.8399H20.6304L20.7598 23.1433C21.1511 24.0997 21.8444 24.9292 22.7966 25.4059C23.2742 25.6225 23.6624 25.7525 24.1832 25.8423C24.9627 25.929 25.7855 26.0156 26.525 25.929C27.6096 25.8423 28.8237 25.5792 29.6464 24.9261C30.5554 24.2297 31.2055 23.2702 31.2055 22.1404C31.2055 18.0052 20.9324 18.5686 20.9324 14.1301C20.9324 12.7806 21.7982 11.9541 22.9691 11.4744C25.049 10.5613 27.6065 10.6913 29.6864 11.6044C29.9884 11.7344 30.2935 11.9077 30.5523 12.0841C30.5954 12.1275 30.8543 12.2575 30.8543 12.3008L30.8974 12.5608L31.2456 14.3467H31.073C30.8574 13.867 30.4229 13.2139 30.1641 12.8672C29.2982 11.7777 27.4771 11.168 25.9149 11.168C24.2664 11.168 21.6657 11.7777 21.6657 13.737C21.6657 16.8291 31.8958 16.3493 31.8958 21.7473C31.8958 22.1404 31.8095 22.7502 31.6801 23.0968C31.3319 24.0997 30.5523 24.8394 29.6433 25.3594C28.4724 26.0559 27.0858 26.2725 25.6992 26.2725C24.442 26.2725 23.0985 26.0559 21.9276 25.5328V25.539Z" fill="#67595E" stroke="#67595E" stroke-width="0.1" stroke-miterlimit="10"/>
<path d="M33.1992 26.192C33.6337 26.192 33.8925 25.7123 34.0219 25.3223C34.1082 25.019 34.1514 24.6259 34.1514 24.2761V12.8672C34.1514 12.5175 34.1082 12.1275 34.0219 11.821C33.8925 11.4279 33.6306 10.9513 33.1992 10.9513V10.8646H36.4932V10.9513C35.9724 10.9513 35.541 11.7777 35.541 12.4741V24.6661C35.541 25.3625 35.9755 26.1889 36.4932 26.1889V26.2756H33.1992V26.1889V26.192Z" fill="#67595E" stroke="#67595E" stroke-width="0.1" stroke-miterlimit="10"/>
<path d="M42.7791 25.7556C41.3062 25.2325 40.0922 24.2328 39.1801 22.9699C38.3142 21.7071 37.7935 20.1409 37.7935 18.5717C37.7935 14.3034 41.0874 10.8646 45.8111 10.8646C49.2345 10.8646 50.9262 12.2575 50.9262 12.2575L51.3606 14.3467H51.1881C50.8861 13.737 50.3654 12.8672 49.8446 12.4308C48.5011 11.3846 46.6369 11.0813 45.0346 11.2546C43.648 11.3846 42.3909 11.9944 41.3925 12.9539C40.4404 13.9103 39.7871 15.1298 39.442 16.4793C39.0075 18.0919 39.0938 19.8314 39.7008 21.4007C40.5236 23.6633 42.4309 25.5359 44.859 25.8856C45.8574 26.0156 47.2008 25.9723 48.153 25.7123C48.8463 25.4956 49.4533 25.1459 49.974 24.6661C50.2329 24.4494 50.4516 24.143 50.6242 23.883C51.0155 23.3166 51.1881 22.8368 51.1881 22.8368H51.4038L50.9693 24.8394C50.276 25.4059 49.4101 25.7092 48.5843 25.929C46.7201 26.4087 44.5539 26.452 42.776 25.7556H42.7791Z" fill="#67595E" stroke="#67595E" stroke-width="0.1" stroke-miterlimit="10"/>
<path d="M52.7041 18.5717C52.7041 14.3034 56.1275 10.8646 60.3766 10.8646C64.6258 10.8646 68.0492 14.3034 68.0492 18.5717C68.0492 22.8399 64.6258 26.2787 60.3766 26.2787C56.1275 26.2787 52.7041 22.8399 52.7041 18.5717ZM66.6164 18.5717C66.6164 14.4798 63.8 11.171 60.3736 11.171C56.9471 11.171 54.1308 14.4798 54.1308 18.5717C54.1308 22.6635 56.9471 25.9723 60.3736 25.9723C63.8 25.9723 66.6164 22.6635 66.6164 18.5717ZM60.5923 9.25512C60.8943 8.5587 60.9405 8.47203 61.5445 7.03586H63.0174C60.808 9.25512 60.6755 9.34488 60.6755 9.34488L60.5893 9.25821L60.5923 9.25512Z" fill="#67595E" stroke="#67595E" stroke-width="0.1" stroke-miterlimit="10"/>
<path d="M68.4806 26.192C68.7394 26.192 68.9582 26.0187 69.1307 25.7556C69.5221 25.0592 69.4327 24.1461 69.4327 23.3599V12.8672C69.4327 12.5175 69.3896 12.1275 69.3033 11.821C69.1739 11.4279 68.9119 10.9513 68.4806 10.9513V10.8646H71.7745V10.9513C71.2538 10.9513 70.8224 11.7777 70.8224 12.4741V25.9723H72.6866C75.8511 25.9723 78.4518 26.1456 79.3176 24.7094H79.4902L79.1882 26.2756H68.4806V26.1889V26.192Z" fill="#67595E" stroke="#67595E" stroke-width="0.1" stroke-miterlimit="10"/>
<path d="M80.3591 18.5717C80.3591 14.3034 83.7825 10.8646 88.0317 10.8646C92.2808 10.8646 95.7042 14.3034 95.7042 18.5717C95.7042 22.8399 92.2808 26.2787 88.0317 26.2787C83.7825 26.2787 80.3591 22.8399 80.3591 18.5717ZM94.2714 18.5717C94.2714 14.4798 91.455 11.171 88.0286 11.171C84.6021 11.171 81.7858 14.4798 81.7858 18.5717C81.7858 22.6635 84.6021 25.9723 88.0286 25.9723C91.455 25.9723 94.2714 22.6635 94.2714 18.5717Z" fill="#67595E" stroke="#67595E" stroke-width="0.1" stroke-miterlimit="10"/>
<path d="M112.001 19.3114V19.6147H111.915C111.179 19.6581 111.049 20.2245 111.049 20.9643V24.5361L110.27 25.1025C109.663 25.4956 108.883 25.7556 108.233 25.929C106.369 26.4087 104.203 26.452 102.381 25.7556C100.952 25.2325 99.6945 24.2328 98.7825 22.9699C97.9166 21.7071 97.439 20.1409 97.439 18.5717C97.439 14.3034 100.69 10.8646 105.414 10.8646C108.837 10.8646 110.529 12.2575 110.529 12.2575L110.963 14.3467H110.79C110.488 13.737 109.968 12.8672 109.447 12.4308C108.104 11.3846 106.282 11.0813 104.637 11.2546C103.25 11.3846 101.993 11.9944 101.038 12.9539C100.04 13.9103 99.3895 15.1298 99.0444 16.4793C98.653 18.0919 98.6993 19.8314 99.3032 21.4007C100.169 23.6633 102.033 25.5359 104.505 25.8856C105.457 26.0156 106.803 25.9723 107.755 25.7123C108.449 25.4956 109.056 25.1459 109.576 24.6661L109.663 24.5794V20.8343C109.663 20.1812 109.142 19.6581 108.492 19.6581H106.714V19.3114H112.001Z" fill="#67595E" stroke="#67595E" stroke-width="0.1" stroke-miterlimit="10"/>
<path d="M126.305 26.192V26.2787H123.489V26.192C123.88 26.192 124.139 25.799 123.88 24.9292C123.707 24.3194 123.446 23.5364 123.1 22.6666C121.714 22.5799 120.848 22.1435 119.979 21.7102C119.027 21.2304 118.072 20.7538 116.337 20.7538C115.859 20.7538 115.471 20.8404 115.209 20.8838C114.645 22.4066 114.168 23.7995 113.866 24.759C113.779 25.0623 113.736 25.3254 113.736 25.5421C113.736 25.9351 113.866 26.1951 114.128 26.1951V26.2818H112.436V26.1951C112.827 26.1951 113.215 25.6287 113.521 24.759C113.869 23.7128 114.3 22.3633 114.821 20.9704L114.907 20.6671C116.599 16.1822 118.722 10.8708 118.722 10.8708H120.152C120.152 10.8708 124.009 20.8404 125.223 24.7156C125.439 25.4121 125.917 26.1951 126.308 26.1951L126.305 26.192ZM123.011 22.3602C121.452 18.0052 118.894 11.431 118.894 11.431C118.894 11.431 116.901 16.3957 115.339 20.5743C115.597 20.4876 115.946 20.4443 116.337 20.4443C118.158 20.4443 119.196 20.9673 120.195 21.4471C121.017 21.8835 121.797 22.2735 123.011 22.3602Z" fill="#67595E" stroke="#67595E" stroke-width="0.1" stroke-miterlimit="10"/>
<path d="M157.602 0.155236C155.393 0.504994 153.874 1.24475 152.444 2.37449C148.716 5.42326 149.064 10.778 149.064 15.1329V24.2761C149.064 24.6259 149.064 25.0159 149.193 25.3656L149.279 25.5823C149.409 25.8856 149.671 26.192 150.016 26.192V26.2787H146.722V26.2354C147.243 26.192 147.677 25.3656 147.677 24.6692V20.7507C145.942 20.7507 144.904 20.2276 143.906 19.7045C142.864 19.1814 141.783 18.6583 139.875 18.6583C139.441 18.6583 139.139 18.7017 138.877 18.745C138.877 20.3112 138.92 21.8804 138.92 23.4466C138.92 24.1864 138.92 24.8828 138.877 25.5359C138.661 28.498 137.925 30.7172 136.578 32.5032C135.928 33.3296 135.192 34.0693 134.28 34.7657C132.807 35.8986 130.986 36.7683 128.949 37.0283L128.906 36.9417C131.115 36.5919 132.634 35.8955 134.064 34.7224C137.792 31.6736 137.444 26.3189 137.444 22.0073V12.8208C137.444 12.471 137.444 12.081 137.315 11.7746L137.228 11.5146C137.099 11.2113 136.837 10.9049 136.492 10.9049V10.8182H139.786V10.9049C139.265 10.9049 138.834 11.7746 138.834 12.4277V13.2541C138.834 14.9534 138.834 16.6929 138.877 18.3921C139.136 18.3488 139.484 18.3055 139.875 18.3055C141.869 18.3055 142.997 18.8719 144.124 19.4383C145.123 19.9614 146.032 20.4412 147.68 20.4412C147.637 18.1786 147.637 15.9129 147.594 13.6503C147.594 12.9105 147.594 12.2141 147.637 11.561C147.853 8.59894 148.592 6.37968 149.936 4.59375C150.586 3.76733 151.322 3.02758 152.235 2.37449C153.707 1.19832 155.528 0.3719 157.565 0.0654755L157.608 0.152141L157.602 0.155236Z" fill="#67595E" stroke="#67595E" stroke-width="0.1" stroke-miterlimit="10"/>
<path d="M151.532 26.192C152.053 26.192 152.484 25.4956 152.484 24.2761V12.8672C152.484 11.691 152.05 10.9513 151.532 10.9513V10.8646H161.805L162.15 12.4772H161.935C161.241 10.9977 158.511 11.171 155.519 11.171H153.871V18.485H158.077C159.204 18.485 159.941 17.9619 159.941 17.5719H160.113V19.7912H159.941V19.7478C159.941 19.3114 159.204 18.7883 158.077 18.7883H153.871V25.9723H155.735C158.899 25.9723 161.5 26.1456 162.366 24.7094H162.538L162.237 26.2756H151.529V26.1889L151.532 26.192Z" fill="#67595E" stroke="#67595E" stroke-width="0.1" stroke-miterlimit="10"/>
<path d="M163.842 26.192C164.101 26.192 164.32 26.0187 164.492 25.7556C164.883 25.0592 164.794 24.1461 164.794 23.3599V12.8672C164.794 12.5175 164.751 12.1275 164.665 11.821C164.535 11.4279 164.273 10.9513 163.842 10.9513V10.8646H167.136V10.9513C166.615 10.9513 166.181 11.7777 166.181 12.4741V25.9723H168.045C171.209 25.9723 173.81 26.1456 174.676 24.7094H174.848L174.546 26.2756H163.839V26.1889L163.842 26.192Z" fill="#67595E" stroke="#67595E" stroke-width="0.1" stroke-miterlimit="10"/>
<path d="M176.152 26.192C176.411 26.192 176.629 26.0187 176.802 25.7556C177.193 25.0592 177.104 24.1461 177.104 23.3599V12.8672C177.104 12.5175 177.061 12.1275 176.975 11.821C176.845 11.4279 176.583 10.9513 176.152 10.9513V10.8646H179.446V10.9513C178.925 10.9513 178.491 11.7777 178.491 12.4741V25.9723H180.355C183.519 25.9723 186.12 26.1456 186.986 24.7094H187.158L186.856 26.2756H176.149V26.1889L176.152 26.192Z" fill="#67595E" stroke="#67595E" stroke-width="0.1" stroke-miterlimit="10"/>
<path d="M188.462 26.192C188.983 26.192 189.414 25.4956 189.414 24.2761V12.8672C189.414 11.691 188.979 10.9513 188.462 10.9513V10.8646H198.735L199.08 12.4772H198.864C198.171 10.9977 195.441 11.171 192.449 11.171H190.801V18.485H195.007C196.134 18.485 196.871 17.9619 196.871 17.5719H197.043V19.7912H196.871V19.7478C196.871 19.3114 196.134 18.7883 195.007 18.7883H190.801V25.9723H192.665C195.829 25.9723 198.43 26.1456 199.296 24.7094H199.468L199.166 26.2756H188.459V26.1889L188.462 26.192Z" fill="#67595E" stroke="#67595E" stroke-width="0.1" stroke-miterlimit="10"/>
<path d="M212.823 10.8646V10.9513C212.259 10.9513 212.086 11.6477 212.086 12.4741V26.2756H211.741L201.684 13.1705L201.727 24.6661C201.727 25.5359 201.856 26.1889 202.42 26.1889V26.2756H200.599V26.1889H200.642C201.206 26.1889 201.379 25.4492 201.379 24.7094L201.336 12.7372L199.906 10.8646H201.727L211.741 23.9697V12.4308C211.741 11.691 211.612 10.9513 211.048 10.9513H211.005V10.8646H212.826H212.823Z" fill="#67595E" stroke="#67595E" stroke-width="0.1" stroke-miterlimit="10"/>
<path d="M223.355 28.498C223.789 28.498 224.091 28.0182 224.178 27.6715C224.264 27.3218 224.307 26.9318 224.307 26.582V10.6449C224.307 10.2951 224.307 9.94844 224.178 9.59869C224.048 9.24893 223.786 8.72893 223.355 8.72893V8.64227H226.649V8.72893C226.171 8.72893 225.697 9.42535 225.697 10.6015L225.74 21.3109H227.518C229.641 21.3109 231.767 20.8312 233.499 19.4383C235.449 17.8722 236.099 14.9967 236.099 12.7341C236.099 7.63942 232.892 3.28448 227.949 3.37424C225.349 3.41757 223.05 4.33066 221.404 6.02992C219.845 7.63942 219.02 9.81844 219.02 12.1244C219.02 14.4303 219.885 16.566 221.534 18.2188C222.012 18.6986 222.532 19.1319 223.093 19.4817V19.6117C222.486 19.2619 221.922 18.8286 221.445 18.3055C219.885 16.5629 218.887 14.387 218.887 12.1213C218.887 9.85559 219.753 7.593 221.315 5.98349C223.007 4.19756 225.346 3.28448 227.989 3.28448C234.275 3.28448 237.526 7.89942 237.526 12.8641C237.526 14.6934 237.005 16.566 236.096 17.7391C234.405 19.915 231.937 21.2645 229.246 21.4409C228.639 21.4842 228.032 21.5276 227.425 21.5276H225.691V26.9689C225.691 27.6654 226.125 28.4918 226.643 28.4918V28.5784H223.349V28.4918L223.355 28.498Z" fill="#67595E" stroke="#67595E" stroke-width="0.1" stroke-miterlimit="10"/>
<path d="M238.829 26.192C239.35 26.192 239.782 25.4956 239.782 24.2761V12.8672C239.782 11.691 239.347 10.9513 238.829 10.9513V10.8646H249.103L249.448 12.4772H249.232C248.539 10.9977 245.809 11.171 242.817 11.171H241.168V18.485H245.374C246.502 18.485 247.238 17.9619 247.238 17.5719H247.411V19.7912H247.238V19.7478C247.238 19.3114 246.502 18.7883 245.374 18.7883H241.168V25.9723H243.032C246.197 25.9723 248.798 26.1456 249.663 24.7094H249.836L249.534 26.2756H238.826V26.1889L238.829 26.192Z" fill="#67595E" stroke="#67595E" stroke-width="0.1" stroke-miterlimit="10"/>
<path d="M264.056 26.0156V26.1023C263.622 26.2323 263.536 26.1889 263.191 26.2323C261.976 26.3189 260.981 25.9723 259.983 24.8828L257.425 22.1404C256.732 21.4007 256.125 20.9643 255.432 20.8776C254.738 20.9209 254.045 20.9209 253.481 20.9209V24.6661C253.481 25.1025 253.654 25.669 253.959 25.929C254.088 26.0589 254.218 26.1456 254.35 26.1889H254.436V26.2756H251.142V26.1889C251.401 26.1889 251.62 26.0156 251.793 25.7525C251.965 25.4059 252.095 24.9261 252.095 24.273V12.8641C252.095 12.5144 252.095 12.1244 251.965 11.8179C251.836 11.4249 251.574 10.9482 251.142 10.9482V10.8615H254.436C258.51 10.8615 262.152 11.9077 262.152 15.6498C262.152 18.9152 259.986 20.3081 258.079 20.7012L257.601 20.7445C257.515 20.7445 257.428 20.7878 257.342 20.7878C257.906 21.0045 258.47 21.3542 259.034 21.964L261.548 24.7063C262.371 25.5761 262.762 26.1425 263.628 26.0992C263.844 26.0559 263.933 26.0559 264.063 26.0125L264.056 26.0156ZM255.604 20.6176C256.168 20.5743 256.775 20.5309 257.296 20.4009L257.86 20.2709C260.069 19.6178 260.762 18.0517 260.762 15.6993C260.762 13.1303 259.246 11.8241 257.425 11.431C256.775 11.2577 255.734 11.171 254.911 11.171H253.481V20.6207C253.481 20.6207 254.436 20.664 255.604 20.6207V20.6176Z" fill="#67595E" stroke="#67595E" stroke-width="0.1" stroke-miterlimit="10"/>
<path d="M264.925 26.192C265.446 26.192 265.877 25.4956 265.877 24.2761V12.8672C265.877 11.691 265.443 10.9513 264.925 10.9513V10.8646H275.199L275.544 12.4772H275.328C274.635 10.9977 271.905 11.171 268.913 11.171H267.264V18.485H271.47C272.598 18.485 273.334 17.9619 273.334 17.5719H273.507V19.7912H273.334V19.7478C273.334 19.3114 272.598 18.7883 271.47 18.7883H267.264V25.9723H269.128C272.293 25.9723 274.893 26.1456 275.759 24.7094H275.932L275.63 26.2756H264.922V26.1889L264.925 26.192Z" fill="#67595E" stroke="#67595E" stroke-width="0.1" stroke-miterlimit="10"/>
<path d="M277.235 26.192C277.67 26.192 277.929 25.7123 278.058 25.3223C278.144 25.019 278.187 24.6259 278.187 24.2761V12.8672C278.187 12.5175 278.144 12.1275 278.058 11.821C277.929 11.4279 277.667 10.9513 277.235 10.9513V10.8646H280.529V10.9513C280.008 10.9513 279.574 11.7777 279.574 12.4741V24.6661C279.574 25.3625 280.008 26.1889 280.529 26.1889V26.2756H277.235V26.1889V26.192Z" fill="#67595E" stroke="#67595E" stroke-width="0.1" stroke-miterlimit="10"/>
<path d="M295.178 26.0156V26.1023C294.743 26.2323 294.657 26.1889 294.312 26.2323C293.098 26.3189 292.103 25.9723 291.104 24.8828L288.547 22.1404C287.854 21.4007 287.247 20.9643 286.553 20.8776C285.86 20.9209 285.167 20.9209 284.603 20.9209V24.6661C284.603 25.1025 284.775 25.669 285.08 25.929C285.21 26.0589 285.339 26.1456 285.472 26.1889H285.558V26.2756H282.264V26.1889C282.523 26.1889 282.742 26.0156 282.914 25.7525C283.087 25.4059 283.216 24.9261 283.216 24.273V12.8641C283.216 12.5144 283.216 12.1244 283.087 11.8179C282.957 11.4249 282.695 10.9482 282.264 10.9482V10.8615H285.558C289.632 10.8615 293.274 11.9077 293.274 15.6498C293.274 18.9152 291.107 20.3081 289.2 20.7012L288.723 20.7445C288.636 20.7445 288.55 20.7878 288.464 20.7878C289.028 21.0045 289.591 21.3542 290.155 21.964L292.67 24.7063C293.492 25.5761 293.884 26.1425 294.75 26.0992C294.965 26.0559 295.055 26.0559 295.184 26.0125L295.178 26.0156ZM286.726 20.6176C287.29 20.5743 287.897 20.5309 288.417 20.4009L288.981 20.2709C291.191 19.6178 291.884 18.0517 291.884 15.6993C291.884 13.1303 290.368 11.8241 288.547 11.431C287.897 11.2577 286.855 11.171 286.033 11.171H284.603V20.6207C284.603 20.6207 285.555 20.664 286.726 20.6207V20.6176Z" fill="#67595E" stroke="#67595E" stroke-width="0.1" stroke-miterlimit="10"/>
<path d="M309.485 26.192V26.2787H306.668V26.192C307.06 26.192 307.318 25.799 307.06 24.9292C306.887 24.3194 306.625 23.5364 306.28 22.6666C304.893 22.5799 304.028 22.1435 303.159 21.7102C302.206 21.2304 301.251 20.7538 299.516 20.7538C299.039 20.7538 298.651 20.8404 298.389 20.8838C297.825 22.4066 297.347 23.7995 297.045 24.759C296.959 25.0623 296.916 25.3254 296.916 25.5421C296.916 25.9351 297.045 26.1951 297.307 26.1951V26.2818H295.615V26.1951C296.007 26.1951 296.395 25.6287 296.7 24.759C297.045 23.7128 297.48 22.3633 298 20.9704L298.087 20.6671C299.778 16.1822 301.901 10.8708 301.901 10.8708H303.331C303.331 10.8708 307.189 20.8404 308.403 24.7156C308.619 25.4121 309.096 26.1951 309.488 26.1951L309.485 26.192ZM306.191 22.3602C304.631 18.0052 302.074 11.431 302.074 11.431C302.074 11.431 300.08 16.3957 298.521 20.5743C298.78 20.4876 299.128 20.4443 299.52 20.4443C301.341 20.4443 302.379 20.9673 303.377 21.4471C304.2 21.8835 304.983 22.2735 306.194 22.3602H306.191Z" fill="#67595E" stroke="#67595E" stroke-width="0.1" stroke-miterlimit="10"/>
</g>
<defs>
<clipPath id="clip0_30_2">
<rect width="309" height="37" fill="white" transform="translate(0.5 0.0499992)"/>
</clipPath>
</defs>
</svg>
